<?xml version="1.0" encoding="UTF-8" standalone="no"?>
<!DOCTYPE svg PUBLIC "-//W3C//DTD SVG 1.1//EN"
 "http://www.w3.org/Graphics/SVG/1.1/DTD/svg11.dtd">
<!-- Generated by graphviz version 14.1.4 (20260321.0153)
 -->
<!-- Title: BPlusTree Pages: 1 -->
<svg width="4190pt" height="384pt"
 viewBox="0.00 0.00 4190.00 384.00" xmlns="http://www.w3.org/2000/svg" xmlns:xlink="http://www.w3.org/1999/xlink">
<g id="graph0" class="graph" transform="scale(1 1) rotate(0) translate(4 380)">
<title>BPlusTree</title>
<polygon fill="white" stroke="none" points="-4,4 -4,-380 4186,-380 4186,4 -4,4"/>
<g id="clust1" class="cluster">
<title>cluster_leaves</title>
<polygon fill="none" stroke="black" points="8,-8 8,-60 4174,-60 4174,-8 8,-8"/>
</g>
<!-- n4418317376 -->
<g id="node1" class="node">
<title>n4418317376</title>
<polygon fill="lightblue" stroke="black" points="2130.25,-376 2025.75,-376 2025.75,-340 2130.25,-340 2130.25,-376"/>
<text xml:space="preserve" text-anchor="middle" x="2078" y="-352.95" font-family="Times,serif" font-size="14.00">{22 | 208 | 492}</text>
</g>
<!-- n4418316656 -->
<g id="node2" class="node">
<title>n4418316656</title>
<polygon fill="lightblue" stroke="black" points="717.5,-268 650.5,-268 650.5,-232 717.5,-232 717.5,-268"/>
<text xml:space="preserve" text-anchor="middle" x="684" y="-244.95" font-family="Times,serif" font-size="14.00">{10 | 16}</text>
</g>
<!-- n4418317376&#45;&gt;n4418316656 -->
<g id="edge1" class="edge">
<title>n4418317376&#45;&gt;n4418316656</title>
<path fill="none" stroke="black" d="M2025.48,-353.01C1802.6,-336.06 937.02,-270.24 729.09,-254.43"/>
<polygon fill="black" stroke="black" points="729.48,-250.95 719.25,-253.68 728.95,-257.93 729.48,-250.95"/>
</g>
<!-- n4418317328 -->
<g id="node16" class="node">
<title>n4418317328</title>
<polygon fill="lightblue" stroke="black" points="1837.88,-268 1740.12,-268 1740.12,-232 1837.88,-232 1837.88,-268"/>
<text xml:space="preserve" text-anchor="middle" x="1789" y="-244.95" font-family="Times,serif" font-size="14.00">{28 | 50 | 124}</text>
</g>
<!-- n4418317376&#45;&gt;n4418317328 -->
<g id="edge15" class="edge">
<title>n4418317376&#45;&gt;n4418317328</title>
<path fill="none" stroke="black" d="M2030.6,-339.61C1980.41,-321.21 1901.14,-292.13 1847.2,-272.35"/>
<polygon fill="black" stroke="black" points="1848.44,-269.07 1837.85,-268.92 1846.03,-275.65 1848.44,-269.07"/>
</g>
<!-- n4418384272 -->
<g id="node32" class="node">
<title>n4418384272</title>
<polygon fill="lightblue" stroke="black" points="2452,-268 2398,-268 2398,-232 2452,-232 2452,-268"/>
<text xml:space="preserve" text-anchor="middle" x="2425" y="-244.95" font-family="Times,serif" font-size="14.00">{342}</text>
</g>
<!-- n4418317376&#45;&gt;n4418384272 -->
<g id="edge31" class="edge">
<title>n4418317376&#45;&gt;n4418384272</title>
<path fill="none" stroke="black" d="M2130.7,-340.9C2201.2,-319.36 2324.53,-281.69 2386.77,-262.68"/>
<polygon fill="black" stroke="black" points="2387.66,-266.07 2396.2,-259.8 2385.62,-259.37 2387.66,-266.07"/>
</g>
<!-- n4418318144 -->
<g id="node42" class="node">
<title>n4418318144</title>
<polygon fill="lightblue" stroke="black" points="3409.25,-268 3328.75,-268 3328.75,-232 3409.25,-232 3409.25,-268"/>
<text xml:space="preserve" text-anchor="middle" x="3369" y="-244.95" font-family="Times,serif" font-size="14.00">{679 | 866}</text>
</g>
<!-- n4418317376&#45;&gt;n4418318144 -->
<g id="edge41" class="edge">
<title>n4418317376&#45;&gt;n4418318144</title>
<path fill="none" stroke="black" d="M2130.61,-352.68C2339.56,-335.52 3109.49,-272.31 3317.12,-255.26"/>
<polygon fill="black" stroke="black" points="3317.1,-258.77 3326.78,-254.47 3316.52,-251.8 3317.1,-258.77"/>
</g>
<!-- n4418315264 -->
<g id="node3" class="node">
<title>n4418315264</title>
<polygon fill="lightblue" stroke="black" points="258.38,-160 187.62,-160 187.62,-124 258.38,-124 258.38,-160"/>
<text xml:space="preserve" text-anchor="middle" x="223" y="-136.95" font-family="Times,serif" font-size="14.00">{3 | 5 | 7}</text>
</g>
<!-- n4418316656&#45;&gt;n4418315264 -->
<g id="edge2" class="edge">
<title>n4418316656&#45;&gt;n4418315264</title>
<path fill="none" stroke="black" d="M650.1,-241.21C568.86,-222.53 362.9,-175.17 269.88,-153.78"/>
<polygon fill="black" stroke="black" points="270.85,-150.41 260.32,-151.58 269.28,-157.23 270.85,-150.41"/>
</g>
<!-- n4418316608 -->
<g id="node8" class="node">
<title>n4418316608</title>
<polygon fill="lightblue" stroke="black" points="614.5,-160 547.5,-160 547.5,-124 614.5,-124 614.5,-160"/>
<text xml:space="preserve" text-anchor="middle" x="581" y="-136.95" font-family="Times,serif" font-size="14.00">{12 | 14}</text>
</g>
<!-- n4418316656&#45;&gt;n4418316608 -->
<g id="edge7" class="edge">
<title>n4418316656&#45;&gt;n4418316608</title>
<path fill="none" stroke="black" d="M667.45,-231.97C650.81,-214.84 624.94,-188.22 605.84,-168.56"/>
<polygon fill="black" stroke="black" points="608.38,-166.16 598.9,-161.43 603.36,-171.04 608.38,-166.16"/>
</g>
<!-- n4418316896 -->
<g id="node12" class="node">
<title>n4418316896</title>
<polygon fill="lightblue" stroke="black" points="820.5,-160 753.5,-160 753.5,-124 820.5,-124 820.5,-160"/>
<text xml:space="preserve" text-anchor="middle" x="787" y="-136.95" font-family="Times,serif" font-size="14.00">{18 | 20}</text>
</g>
<!-- n4418316656&#45;&gt;n4418316896 -->
<g id="edge11" class="edge">
<title>n4418316656&#45;&gt;n4418316896</title>
<path fill="none" stroke="black" d="M700.55,-231.97C717.19,-214.84 743.06,-188.22 762.16,-168.56"/>
<polygon fill="black" stroke="black" points="764.64,-171.04 769.1,-161.43 759.62,-166.16 764.64,-171.04"/>
</g>
<!-- n4334934624 -->
<g id="node4" class="node">
<title>n4334934624</title>
<polygon fill="lightgreen" stroke="black" points="70,-52 16,-52 16,-16 70,-16 70,-52"/>
<text xml:space="preserve" text-anchor="middle" x="43" y="-28.95" font-family="Times,serif" font-size="14.00">{1 | 2}</text>
</g>
<!-- n4418315264&#45;&gt;n4334934624 -->
<g id="edge3" class="edge">
<title>n4418315264&#45;&gt;n4334934624</title>
<path fill="none" stroke="black" d="M193.68,-123.73C162.71,-105.5 113.81,-76.7 80.16,-56.88"/>
<polygon fill="black" stroke="black" points="81.94,-53.87 71.55,-51.81 78.39,-59.9 81.94,-53.87"/>
</g>
<!-- n4418316512 -->
<g id="node5" class="node">
<title>n4418316512</title>
<polygon fill="lightgreen" stroke="black" points="160,-52 106,-52 106,-16 160,-16 160,-52"/>
<text xml:space="preserve" text-anchor="middle" x="133" y="-28.95" font-family="Times,serif" font-size="14.00">{3 | 4}</text>
</g>
<!-- n4418315264&#45;&gt;n4418316512 -->
<g id="edge4" class="edge">
<title>n4418315264&#45;&gt;n4418316512</title>
<path fill="none" stroke="black" d="M208.54,-123.97C194.13,-106.99 171.8,-80.7 155.15,-61.09"/>
<polygon fill="black" stroke="black" points="157.84,-58.85 148.7,-53.49 152.51,-63.38 157.84,-58.85"/>
</g>
<!-- n4418316560 -->
<g id="node6" class="node">
<title>n4418316560</title>
<polygon fill="lightgreen" stroke="black" points="250,-52 196,-52 196,-16 250,-16 250,-52"/>
<text xml:space="preserve" text-anchor="middle" x="223" y="-28.95" font-family="Times,serif" font-size="14.00">{5 | 6}</text>
</g>
<!-- n4418315264&#45;&gt;n4418316560 -->
<g id="edge5" class="edge">
<title>n4418315264&#45;&gt;n4418316560</title>
<path fill="none" stroke="black" d="M223,-123.97C223,-107.76 223,-83.06 223,-63.79"/>
<polygon fill="black" stroke="black" points="226.5,-63.85 223,-53.85 219.5,-63.85 226.5,-63.85"/>
</g>
<!-- n4418316704 -->
<g id="node7" class="node">
<title>n4418316704</title>
<polygon fill="lightgreen" stroke="black" points="356.38,-52 285.62,-52 285.62,-16 356.38,-16 356.38,-52"/>
<text xml:space="preserve" text-anchor="middle" x="321" y="-28.95" font-family="Times,serif" font-size="14.00">{7 | 8 | 9}</text>
</g>
<!-- n4418315264&#45;&gt;n4418316704 -->
<g id="edge6" class="edge">
<title>n4418315264&#45;&gt;n4418316704</title>
<path fill="none" stroke="black" d="M238.75,-123.97C254.58,-106.84 279.19,-80.22 297.37,-60.56"/>
<polygon fill="black" stroke="black" points="299.72,-63.17 303.94,-53.45 294.58,-58.42 299.72,-63.17"/>
</g>
<!-- n4334934624&#45;&gt;n4418316512 -->
<g id="edge54" class="edge">
<title>n4334934624&#45;&gt;n4418316512</title>
<path fill="none" stroke="green" stroke-width="3" stroke-dasharray="5,2" d="M70.42,-34C75.65,-34 80.87,-34 86.1,-34"/>
<polygon fill="green" stroke="green" stroke-width="3" points="86.08,-39.25 101.08,-34 86.08,-28.75 86.08,-39.25"/>
</g>
<!-- n4418316512&#45;&gt;n4418316560 -->
<g id="edge55" class="edge">
<title>n4418316512&#45;&gt;n4418316560</title>
<path fill="none" stroke="green" stroke-width="3" stroke-dasharray="5,2" d="M160.42,-34C165.65,-34 170.87,-34 176.1,-34"/>
<polygon fill="green" stroke="green" stroke-width="3" points="176.08,-39.25 191.08,-34 176.08,-28.75 176.08,-39.25"/>
</g>
<!-- n4418316560&#45;&gt;n4418316704 -->
<g id="edge56" class="edge">
<title>n4418316560&#45;&gt;n4418316704</title>
<path fill="none" stroke="green" stroke-width="3" stroke-dasharray="5,2" d="M250.18,-34C255.39,-34 260.61,-34 265.83,-34"/>
<polygon fill="green" stroke="green" stroke-width="3" points="265.77,-39.25 280.77,-34 265.77,-28.75 265.77,-39.25"/>
</g>
<!-- n4334934672 -->
<g id="node9" class="node">
<title>n4334934672</title>
<polygon fill="lightgreen" stroke="black" points="459.5,-52 392.5,-52 392.5,-16 459.5,-16 459.5,-52"/>
<text xml:space="preserve" text-anchor="middle" x="426" y="-28.95" font-family="Times,serif" font-size="14.00">{10 | 11}</text>
</g>
<!-- n4418316704&#45;&gt;n4334934672 -->
<g id="edge57" class="edge">
<title>n4418316704&#45;&gt;n4334934672</title>
<path fill="none" stroke="green" stroke-width="3" stroke-dasharray="5,2" d="M356.68,-34C362.04,-34 367.4,-34 372.76,-34"/>
<polygon fill="green" stroke="green" stroke-width="3" points="372.61,-39.25 387.61,-34 372.61,-28.75 372.61,-39.25"/>
</g>
<!-- n4418316608&#45;&gt;n4334934672 -->
<g id="edge8" class="edge">
<title>n4418316608&#45;&gt;n4334934672</title>
<path fill="none" stroke="black" d="M555.75,-123.73C529.93,-106.08 489.63,-78.52 460.8,-58.8"/>
<polygon fill="black" stroke="black" points="462.97,-56.05 452.74,-53.29 459.02,-61.82 462.97,-56.05"/>
</g>
<!-- n4418316752 -->
<g id="node10" class="node">
<title>n4418316752</title>
<polygon fill="lightgreen" stroke="black" points="562.5,-52 495.5,-52 495.5,-16 562.5,-16 562.5,-52"/>
<text xml:space="preserve" text-anchor="middle" x="529" y="-28.95" font-family="Times,serif" font-size="14.00">{12 | 13}</text>
</g>
<!-- n4418316608&#45;&gt;n4418316752 -->
<g id="edge9" class="edge">
<title>n4418316608&#45;&gt;n4418316752</title>
<path fill="none" stroke="black" d="M572.65,-123.97C564.51,-107.38 552,-81.88 542.46,-62.43"/>
<polygon fill="black" stroke="black" points="545.72,-61.14 538.17,-53.7 539.44,-64.22 545.72,-61.14"/>
</g>
<!-- n4418316800 -->
<g id="node11" class="node">
<title>n4418316800</title>
<polygon fill="lightgreen" stroke="black" points="665.5,-52 598.5,-52 598.5,-16 665.5,-16 665.5,-52"/>
<text xml:space="preserve" text-anchor="middle" x="632" y="-28.95" font-family="Times,serif" font-size="14.00">{14 | 15}</text>
</g>
<!-- n4418316608&#45;&gt;n4418316800 -->
<g id="edge10" class="edge">
<title>n4418316608&#45;&gt;n4418316800</title>
<path fill="none" stroke="black" d="M589.19,-123.97C597.14,-107.45 609.33,-82.12 618.67,-62.7"/>
<polygon fill="black" stroke="black" points="621.82,-64.23 623,-53.7 615.51,-61.2 621.82,-64.23"/>
</g>
<!-- n4334934672&#45;&gt;n4418316752 -->
<g id="edge58" class="edge">
<title>n4334934672&#45;&gt;n4418316752</title>
<path fill="none" stroke="green" stroke-width="3" stroke-dasharray="5,2" d="M459.8,-34C465.15,-34 470.49,-34 475.84,-34"/>
<polygon fill="green" stroke="green" stroke-width="3" points="475.67,-39.25 490.67,-34 475.67,-28.75 475.67,-39.25"/>
</g>
<!-- n4418316752&#45;&gt;n4418316800 -->
<g id="edge59" class="edge">
<title>n4418316752&#45;&gt;n4418316800</title>
<path fill="none" stroke="green" stroke-width="3" stroke-dasharray="5,2" d="M562.8,-34C568.15,-34 573.49,-34 578.84,-34"/>
<polygon fill="green" stroke="green" stroke-width="3" points="578.67,-39.25 593.67,-34 578.67,-28.75 578.67,-39.25"/>
</g>
<!-- n4418316848 -->
<g id="node13" class="node">
<title>n4418316848</title>
<polygon fill="lightgreen" stroke="black" points="768.5,-52 701.5,-52 701.5,-16 768.5,-16 768.5,-52"/>
<text xml:space="preserve" text-anchor="middle" x="735" y="-28.95" font-family="Times,serif" font-size="14.00">{16 | 17}</text>
</g>
<!-- n4418316800&#45;&gt;n4418316848 -->
<g id="edge60" class="edge">
<title>n4418316800&#45;&gt;n4418316848</title>
<path fill="none" stroke="green" stroke-width="3" stroke-dasharray="5,2" d="M665.8,-34C671.15,-34 676.49,-34 681.84,-34"/>
<polygon fill="green" stroke="green" stroke-width="3" points="681.67,-39.25 696.67,-34 681.67,-28.75 681.67,-39.25"/>
</g>
<!-- n4418316896&#45;&gt;n4418316848 -->
<g id="edge12" class="edge">
<title>n4418316896&#45;&gt;n4418316848</title>
<path fill="none" stroke="black" d="M778.65,-123.97C770.51,-107.38 758,-81.88 748.46,-62.43"/>
<polygon fill="black" stroke="black" points="751.72,-61.14 744.17,-53.7 745.44,-64.22 751.72,-61.14"/>
</g>
<!-- n4418316944 -->
<g id="node14" class="node">
<title>n4418316944</title>
<polygon fill="lightgreen" stroke="black" points="871.5,-52 804.5,-52 804.5,-16 871.5,-16 871.5,-52"/>
<text xml:space="preserve" text-anchor="middle" x="838" y="-28.95" font-family="Times,serif" font-size="14.00">{18 | 19}</text>
</g>
<!-- n4418316896&#45;&gt;n4418316944 -->
<g id="edge13" class="edge">
<title>n4418316896&#45;&gt;n4418316944</title>
<path fill="none" stroke="black" d="M795.19,-123.97C803.14,-107.45 815.33,-82.12 824.67,-62.7"/>
<polygon fill="black" stroke="black" points="827.82,-64.23 829,-53.7 821.51,-61.2 827.82,-64.23"/>
</g>
<!-- n4418316992 -->
<g id="node15" class="node">
<title>n4418316992</title>
<polygon fill="lightgreen" stroke="black" points="974.5,-52 907.5,-52 907.5,-16 974.5,-16 974.5,-52"/>
<text xml:space="preserve" text-anchor="middle" x="941" y="-28.95" font-family="Times,serif" font-size="14.00">{20 | 21}</text>
</g>
<!-- n4418316896&#45;&gt;n4418316992 -->
<g id="edge14" class="edge">
<title>n4418316896&#45;&gt;n4418316992</title>
<path fill="none" stroke="black" d="M812.09,-123.73C837.74,-106.08 877.78,-78.52 906.43,-58.8"/>
<polygon fill="black" stroke="black" points="908.17,-61.85 914.42,-53.29 904.2,-56.08 908.17,-61.85"/>
</g>
<!-- n4418316848&#45;&gt;n4418316944 -->
<g id="edge61" class="edge">
<title>n4418316848&#45;&gt;n4418316944</title>
<path fill="none" stroke="green" stroke-width="3" stroke-dasharray="5,2" d="M768.8,-34C774.15,-34 779.49,-34 784.84,-34"/>
<polygon fill="green" stroke="green" stroke-width="3" points="784.67,-39.25 799.67,-34 784.67,-28.75 784.67,-39.25"/>
</g>
<!-- n4418316944&#45;&gt;n4418316992 -->
<g id="edge62" class="edge">
<title>n4418316944&#45;&gt;n4418316992</title>
<path fill="none" stroke="green" stroke-width="3" stroke-dasharray="5,2" d="M871.8,-34C877.15,-34 882.49,-34 887.84,-34"/>
<polygon fill="green" stroke="green" stroke-width="3" points="887.67,-39.25 902.67,-34 887.67,-28.75 887.67,-39.25"/>
</g>
<!-- n4418317040 -->
<g id="node18" class="node">
<title>n4418317040</title>
<polygon fill="lightgreen" stroke="black" points="1077.5,-52 1010.5,-52 1010.5,-16 1077.5,-16 1077.5,-52"/>
<text xml:space="preserve" text-anchor="middle" x="1044" y="-28.95" font-family="Times,serif" font-size="14.00">{22 | 23}</text>
</g>
<!-- n4418316992&#45;&gt;n4418317040 -->
<g id="edge63" class="edge">
<title>n4418316992&#45;&gt;n4418317040</title>
<path fill="none" stroke="green" stroke-width="3" stroke-dasharray="5,2" d="M974.8,-34C980.15,-34 985.49,-34 990.84,-34"/>
<polygon fill="green" stroke="green" stroke-width="3" points="990.67,-39.25 1005.67,-34 990.67,-28.75 990.67,-39.25"/>
</g>
<!-- n4418317088 -->
<g id="node17" class="node">
<title>n4418317088</title>
<polygon fill="lightblue" stroke="black" points="1232.5,-160 1165.5,-160 1165.5,-124 1232.5,-124 1232.5,-160"/>
<text xml:space="preserve" text-anchor="middle" x="1199" y="-136.95" font-family="Times,serif" font-size="14.00">{24 | 26}</text>
</g>
<!-- n4418317328&#45;&gt;n4418317088 -->
<g id="edge16" class="edge">
<title>n4418317328&#45;&gt;n4418317088</title>
<path fill="none" stroke="black" d="M1739.71,-240.14C1627.08,-219.91 1352.23,-170.53 1243.93,-151.07"/>
<polygon fill="black" stroke="black" points="1244.72,-147.66 1234.26,-149.33 1243.48,-154.55 1244.72,-147.66"/>
</g>
<!-- n4418317280 -->
<g id="node21" class="node">
<title>n4418317280</title>
<polygon fill="lightblue" stroke="black" points="1541.5,-160 1474.5,-160 1474.5,-124 1541.5,-124 1541.5,-160"/>
<text xml:space="preserve" text-anchor="middle" x="1508" y="-136.95" font-family="Times,serif" font-size="14.00">{30 | 40}</text>
</g>
<!-- n4418317328&#45;&gt;n4418317280 -->
<g id="edge20" class="edge">
<title>n4418317328&#45;&gt;n4418317280</title>
<path fill="none" stroke="black" d="M1742.91,-231.61C1690.15,-211.71 1604.31,-179.33 1552.31,-159.71"/>
<polygon fill="black" stroke="black" points="1553.75,-156.52 1543.16,-156.26 1551.28,-163.07 1553.75,-156.52"/>
</g>
<!-- n4418383936 -->
<g id="node25" class="node">
<title>n4418383936</title>
<polygon fill="lightblue" stroke="black" points="1825.88,-160 1752.12,-160 1752.12,-124 1825.88,-124 1825.88,-160"/>
<text xml:space="preserve" text-anchor="middle" x="1789" y="-136.95" font-family="Times,serif" font-size="14.00">{81 | 115}</text>
</g>
<!-- n4418317328&#45;&gt;n4418383936 -->
<g id="edge24" class="edge">
<title>n4418317328&#45;&gt;n4418383936</title>
<path fill="none" stroke="black" d="M1789,-231.97C1789,-215.76 1789,-191.06 1789,-171.79"/>
<polygon fill="black" stroke="black" points="1792.5,-171.85 1789,-161.85 1785.5,-171.85 1792.5,-171.85"/>
</g>
<!-- n4418384608 -->
<g id="node29" class="node">
<title>n4418384608</title>
<polygon fill="lightblue" stroke="black" points="2043,-160 1989,-160 1989,-124 2043,-124 2043,-160"/>
<text xml:space="preserve" text-anchor="middle" x="2016" y="-136.95" font-family="Times,serif" font-size="14.00">{186}</text>
</g>
<!-- n4418317328&#45;&gt;n4418384608 -->
<g id="edge28" class="edge">
<title>n4418317328&#45;&gt;n4418384608</title>
<path fill="none" stroke="black" d="M1826.23,-231.61C1868.23,-212 1936.17,-180.28 1978.35,-160.58"/>
<polygon fill="black" stroke="black" points="1979.79,-163.77 1987.37,-156.37 1976.83,-157.43 1979.79,-163.77"/>
</g>
<!-- n4418317088&#45;&gt;n4418317040 -->
<g id="edge17" class="edge">
<title>n4418317088&#45;&gt;n4418317040</title>
<path fill="none" stroke="black" d="M1173.75,-123.73C1147.93,-106.08 1107.63,-78.52 1078.8,-58.8"/>
<polygon fill="black" stroke="black" points="1080.97,-56.05 1070.74,-53.29 1077.02,-61.82 1080.97,-56.05"/>
</g>
<!-- n4418317136 -->
<g id="node19" class="node">
<title>n4418317136</title>
<polygon fill="lightgreen" stroke="black" points="1180.5,-52 1113.5,-52 1113.5,-16 1180.5,-16 1180.5,-52"/>
<text xml:space="preserve" text-anchor="middle" x="1147" y="-28.95" font-family="Times,serif" font-size="14.00">{24 | 25}</text>
</g>
<!-- n4418317088&#45;&gt;n4418317136 -->
<g id="edge18" class="edge">
<title>n4418317088&#45;&gt;n4418317136</title>
<path fill="none" stroke="black" d="M1190.65,-123.97C1182.51,-107.38 1170,-81.88 1160.46,-62.43"/>
<polygon fill="black" stroke="black" points="1163.72,-61.14 1156.17,-53.7 1157.44,-64.22 1163.72,-61.14"/>
</g>
<!-- n4418317184 -->
<g id="node20" class="node">
<title>n4418317184</title>
<polygon fill="lightgreen" stroke="black" points="1283.5,-52 1216.5,-52 1216.5,-16 1283.5,-16 1283.5,-52"/>
<text xml:space="preserve" text-anchor="middle" x="1250" y="-28.95" font-family="Times,serif" font-size="14.00">{26 | 27}</text>
</g>
<!-- n4418317088&#45;&gt;n4418317184 -->
<g id="edge19" class="edge">
<title>n4418317088&#45;&gt;n4418317184</title>
<path fill="none" stroke="black" d="M1207.19,-123.97C1215.14,-107.45 1227.33,-82.12 1236.67,-62.7"/>
<polygon fill="black" stroke="black" points="1239.82,-64.23 1241,-53.7 1233.51,-61.2 1239.82,-64.23"/>
</g>
<!-- n4418317040&#45;&gt;n4418317136 -->
<g id="edge64" class="edge">
<title>n4418317040&#45;&gt;n4418317136</title>
<path fill="none" stroke="green" stroke-width="3" stroke-dasharray="5,2" d="M1077.8,-34C1083.15,-34 1088.49,-34 1093.84,-34"/>
<polygon fill="green" stroke="green" stroke-width="3" points="1093.67,-39.25 1108.67,-34 1093.67,-28.75 1093.67,-39.25"/>
</g>
<!-- n4418317136&#45;&gt;n4418317184 -->
<g id="edge65" class="edge">
<title>n4418317136&#45;&gt;n4418317184</title>
<path fill="none" stroke="green" stroke-width="3" stroke-dasharray="5,2" d="M1180.8,-34C1186.15,-34 1191.49,-34 1196.84,-34"/>
<polygon fill="green" stroke="green" stroke-width="3" points="1196.67,-39.25 1211.67,-34 1196.67,-28.75 1196.67,-39.25"/>
</g>
<!-- n4418317232 -->
<g id="node22" class="node">
<title>n4418317232</title>
<polygon fill="lightgreen" stroke="black" points="1386.5,-52 1319.5,-52 1319.5,-16 1386.5,-16 1386.5,-52"/>
<text xml:space="preserve" text-anchor="middle" x="1353" y="-28.95" font-family="Times,serif" font-size="14.00">{28 | 29}</text>
</g>
<!-- n4418317184&#45;&gt;n4418317232 -->
<g id="edge66" class="edge">
<title>n4418317184&#45;&gt;n4418317232</title>
<path fill="none" stroke="green" stroke-width="3" stroke-dasharray="5,2" d="M1283.8,-34C1289.15,-34 1294.49,-34 1299.84,-34"/>
<polygon fill="green" stroke="green" stroke-width="3" points="1299.67,-39.25 1314.67,-34 1299.67,-28.75 1299.67,-39.25"/>
</g>
<!-- n4418317280&#45;&gt;n4418317232 -->
<g id="edge21" class="edge">
<title>n4418317280&#45;&gt;n4418317232</title>
<path fill="none" stroke="black" d="M1482.75,-123.73C1456.93,-106.08 1416.63,-78.52 1387.8,-58.8"/>
<polygon fill="black" stroke="black" points="1389.97,-56.05 1379.74,-53.29 1386.02,-61.82 1389.97,-56.05"/>
</g>
<!-- n4334934576 -->
<g id="node23" class="node">
<title>n4334934576</title>
<polygon fill="lightgreen" stroke="black" points="1489.5,-52 1422.5,-52 1422.5,-16 1489.5,-16 1489.5,-52"/>
<text xml:space="preserve" text-anchor="middle" x="1456" y="-28.95" font-family="Times,serif" font-size="14.00">{30 | 34}</text>
</g>
<!-- n4418317280&#45;&gt;n4334934576 -->
<g id="edge22" class="edge">
<title>n4418317280&#45;&gt;n4334934576</title>
<path fill="none" stroke="black" d="M1499.65,-123.97C1491.51,-107.38 1479,-81.88 1469.46,-62.43"/>
<polygon fill="black" stroke="black" points="1472.72,-61.14 1465.17,-53.7 1466.44,-64.22 1472.72,-61.14"/>
</g>
<!-- n4418318192 -->
<g id="node24" class="node">
<title>n4418318192</title>
<polygon fill="lightgreen" stroke="black" points="1592.5,-52 1525.5,-52 1525.5,-16 1592.5,-16 1592.5,-52"/>
<text xml:space="preserve" text-anchor="middle" x="1559" y="-28.95" font-family="Times,serif" font-size="14.00">{40 | 42}</text>
</g>
<!-- n4418317280&#45;&gt;n4418318192 -->
<g id="edge23" class="edge">
<title>n4418317280&#45;&gt;n4418318192</title>
<path fill="none" stroke="black" d="M1516.19,-123.97C1524.14,-107.45 1536.33,-82.12 1545.67,-62.7"/>
<polygon fill="black" stroke="black" points="1548.82,-64.23 1550,-53.7 1542.51,-61.2 1548.82,-64.23"/>
</g>
<!-- n4418317232&#45;&gt;n4334934576 -->
<g id="edge67" class="edge">
<title>n4418317232&#45;&gt;n4334934576</title>
<path fill="none" stroke="green" stroke-width="3" stroke-dasharray="5,2" d="M1386.8,-34C1392.15,-34 1397.49,-34 1402.84,-34"/>
<polygon fill="green" stroke="green" stroke-width="3" points="1402.67,-39.25 1417.67,-34 1402.67,-28.75 1402.67,-39.25"/>
</g>
<!-- n4334934576&#45;&gt;n4418318192 -->
<g id="edge68" class="edge">
<title>n4334934576&#45;&gt;n4418318192</title>
<path fill="none" stroke="green" stroke-width="3" stroke-dasharray="5,2" d="M1489.8,-34C1495.15,-34 1500.49,-34 1505.84,-34"/>
<polygon fill="green" stroke="green" stroke-width="3" points="1505.67,-39.25 1520.67,-34 1505.67,-28.75 1505.67,-39.25"/>
</g>
<!-- n4418317712 -->
<g id="node26" class="node">
<title>n4418317712</title>
<polygon fill="lightgreen" stroke="black" points="1719.5,-52 1628.5,-52 1628.5,-16 1719.5,-16 1719.5,-52"/>
<text xml:space="preserve" text-anchor="middle" x="1674" y="-28.95" font-family="Times,serif" font-size="14.00">{50 | 51 | 52}</text>
</g>
<!-- n4418318192&#45;&gt;n4418317712 -->
<g id="edge69" class="edge">
<title>n4418318192&#45;&gt;n4418317712</title>
<path fill="none" stroke="green" stroke-width="3" stroke-dasharray="5,2" d="M1592.69,-34C1598.06,-34 1603.44,-34 1608.81,-34"/>
<polygon fill="green" stroke="green" stroke-width="3" points="1608.72,-39.25 1623.72,-34 1608.72,-28.75 1608.72,-39.25"/>
</g>
<!-- n4418383936&#45;&gt;n4418317712 -->
<g id="edge25" class="edge">
<title>n4418383936&#45;&gt;n4418317712</title>
<path fill="none" stroke="black" d="M1770.27,-123.73C1751.47,-106.41 1722.33,-79.55 1701.03,-59.92"/>
<polygon fill="black" stroke="black" points="1703.56,-57.49 1693.84,-53.29 1698.82,-62.64 1703.56,-57.49"/>
</g>
<!-- n4418318288 -->
<g id="node27" class="node">
<title>n4418318288</title>
<polygon fill="lightgreen" stroke="black" points="1822.5,-52 1755.5,-52 1755.5,-16 1822.5,-16 1822.5,-52"/>
<text xml:space="preserve" text-anchor="middle" x="1789" y="-28.95" font-family="Times,serif" font-size="14.00">{81 | 82}</text>
</g>
<!-- n4418383936&#45;&gt;n4418318288 -->
<g id="edge26" class="edge">
<title>n4418383936&#45;&gt;n4418318288</title>
<path fill="none" stroke="black" d="M1789,-123.97C1789,-107.76 1789,-83.06 1789,-63.79"/>
<polygon fill="black" stroke="black" points="1792.5,-63.85 1789,-53.85 1785.5,-63.85 1792.5,-63.85"/>
</g>
<!-- n4418383984 -->
<g id="node28" class="node">
<title>n4418383984</title>
<polygon fill="lightgreen" stroke="black" points="1939.25,-52 1858.75,-52 1858.75,-16 1939.25,-16 1939.25,-52"/>
<text xml:space="preserve" text-anchor="middle" x="1899" y="-28.95" font-family="Times,serif" font-size="14.00">{115 | 116}</text>
</g>
<!-- n4418383936&#45;&gt;n4418383984 -->
<g id="edge27" class="edge">
<title>n4418383936&#45;&gt;n4418383984</title>
<path fill="none" stroke="black" d="M1806.67,-123.97C1824.53,-106.76 1852.32,-79.98 1872.75,-60.29"/>
<polygon fill="black" stroke="black" points="1875.14,-62.85 1879.92,-53.39 1870.29,-57.81 1875.14,-62.85"/>
</g>
<!-- n4418317712&#45;&gt;n4418318288 -->
<g id="edge70" class="edge">
<title>n4418317712&#45;&gt;n4418318288</title>
<path fill="none" stroke="green" stroke-width="3" stroke-dasharray="5,2" d="M1719.82,-34C1725.17,-34 1730.51,-34 1735.86,-34"/>
<polygon fill="green" stroke="green" stroke-width="3" points="1735.68,-39.25 1750.68,-34 1735.68,-28.75 1735.68,-39.25"/>
</g>
<!-- n4418318288&#45;&gt;n4418383984 -->
<g id="edge71" class="edge">
<title>n4418318288&#45;&gt;n4418383984</title>
<path fill="none" stroke="green" stroke-width="3" stroke-dasharray="5,2" d="M1822.95,-34C1828.29,-34 1833.63,-34 1838.96,-34"/>
<polygon fill="green" stroke="green" stroke-width="3" points="1838.76,-39.25 1853.76,-34 1838.76,-28.75 1838.76,-39.25"/>
</g>
<!-- n4418384560 -->
<g id="node30" class="node">
<title>n4418384560</title>
<polygon fill="lightgreen" stroke="black" points="2056.25,-52 1975.75,-52 1975.75,-16 2056.25,-16 2056.25,-52"/>
<text xml:space="preserve" text-anchor="middle" x="2016" y="-28.95" font-family="Times,serif" font-size="14.00">{124 | 130}</text>
</g>
<!-- n4418383984&#45;&gt;n4418384560 -->
<g id="edge72" class="edge">
<title>n4418383984&#45;&gt;n4418384560</title>
<path fill="none" stroke="green" stroke-width="3" stroke-dasharray="5,2" d="M1939.68,-34C1945.17,-34 1950.67,-34 1956.17,-34"/>
<polygon fill="green" stroke="green" stroke-width="3" points="1955.91,-39.25 1970.91,-34 1955.91,-28.75 1955.91,-39.25"/>
</g>
<!-- n4418384608&#45;&gt;n4418384560 -->
<g id="edge29" class="edge">
<title>n4418384608&#45;&gt;n4418384560</title>
<path fill="none" stroke="black" d="M2016,-123.97C2016,-107.76 2016,-83.06 2016,-63.79"/>
<polygon fill="black" stroke="black" points="2019.5,-63.85 2016,-53.85 2012.5,-63.85 2019.5,-63.85"/>
</g>
<!-- n4418384368 -->
<g id="node31" class="node">
<title>n4418384368</title>
<polygon fill="lightgreen" stroke="black" points="2173.25,-52 2092.75,-52 2092.75,-16 2173.25,-16 2173.25,-52"/>
<text xml:space="preserve" text-anchor="middle" x="2133" y="-28.95" font-family="Times,serif" font-size="14.00">{186 | 196}</text>
</g>
<!-- n4418384608&#45;&gt;n4418384368 -->
<g id="edge30" class="edge">
<title>n4418384608&#45;&gt;n4418384368</title>
<path fill="none" stroke="black" d="M2035.06,-123.73C2054.18,-106.41 2083.83,-79.55 2105.5,-59.92"/>
<polygon fill="black" stroke="black" points="2107.77,-62.58 2112.83,-53.28 2103.07,-57.4 2107.77,-62.58"/>
</g>
<!-- n4418384560&#45;&gt;n4418384368 -->
<g id="edge73" class="edge">
<title>n4418384560&#45;&gt;n4418384368</title>
<path fill="none" stroke="green" stroke-width="3" stroke-dasharray="5,2" d="M2056.68,-34C2062.17,-34 2067.67,-34 2073.17,-34"/>
<polygon fill="green" stroke="green" stroke-width="3" points="2072.91,-39.25 2087.91,-34 2072.91,-28.75 2072.91,-39.25"/>
</g>
<!-- n4418317616 -->
<g id="node34" class="node">
<title>n4418317616</title>
<polygon fill="lightgreen" stroke="black" points="2290.25,-52 2209.75,-52 2209.75,-16 2290.25,-16 2290.25,-52"/>
<text xml:space="preserve" text-anchor="middle" x="2250" y="-28.95" font-family="Times,serif" font-size="14.00">{208 | 218}</text>
</g>
<!-- n4418384368&#45;&gt;n4418317616 -->
<g id="edge74" class="edge">
<title>n4418384368&#45;&gt;n4418317616</title>
<path fill="none" stroke="green" stroke-width="3" stroke-dasharray="5,2" d="M2173.68,-34C2179.17,-34 2184.67,-34 2190.17,-34"/>
<polygon fill="green" stroke="green" stroke-width="3" points="2189.91,-39.25 2204.91,-34 2189.91,-28.75 2189.91,-39.25"/>
</g>
<!-- n4418317808 -->
<g id="node33" class="node">
<title>n4418317808</title>
<polygon fill="lightblue" stroke="black" points="2480.62,-160 2369.38,-160 2369.38,-124 2480.62,-124 2480.62,-160"/>
<text xml:space="preserve" text-anchor="middle" x="2425" y="-136.95" font-family="Times,serif" font-size="14.00">{240 | 294 | 310}</text>
</g>
<!-- n4418384272&#45;&gt;n4418317808 -->
<g id="edge32" class="edge">
<title>n4418384272&#45;&gt;n4418317808</title>
<path fill="none" stroke="black" d="M2425,-231.97C2425,-215.76 2425,-191.06 2425,-171.79"/>
<polygon fill="black" stroke="black" points="2428.5,-171.85 2425,-161.85 2421.5,-171.85 2428.5,-171.85"/>
</g>
<!-- n4418384224 -->
<g id="node38" class="node">
<title>n4418384224</title>
<polygon fill="lightblue" stroke="black" points="2816.25,-160 2735.75,-160 2735.75,-124 2816.25,-124 2816.25,-160"/>
<text xml:space="preserve" text-anchor="middle" x="2776" y="-136.95" font-family="Times,serif" font-size="14.00">{406 | 435}</text>
</g>
<!-- n4418384272&#45;&gt;n4418384224 -->
<g id="edge37" class="edge">
<title>n4418384272&#45;&gt;n4418384224</title>
<path fill="none" stroke="black" d="M2452.25,-240.77C2510.74,-223.11 2649.12,-181.32 2724.65,-158.51"/>
<polygon fill="black" stroke="black" points="2725.31,-161.97 2733.87,-155.72 2723.28,-155.26 2725.31,-161.97"/>
</g>
<!-- n4418317808&#45;&gt;n4418317616 -->
<g id="edge33" class="edge">
<title>n4418317808&#45;&gt;n4418317616</title>
<path fill="none" stroke="black" d="M2396.49,-123.73C2367.09,-105.92 2321.05,-78.04 2288.44,-58.28"/>
<polygon fill="black" stroke="black" points="2290.45,-55.41 2280.08,-53.22 2286.82,-61.39 2290.45,-55.41"/>
</g>
<!-- n4418384032 -->
<g id="node35" class="node">
<title>n4418384032</title>
<polygon fill="lightgreen" stroke="black" points="2407.25,-52 2326.75,-52 2326.75,-16 2407.25,-16 2407.25,-52"/>
<text xml:space="preserve" text-anchor="middle" x="2367" y="-28.95" font-family="Times,serif" font-size="14.00">{240 | 248}</text>
</g>
<!-- n4418317808&#45;&gt;n4418384032 -->
<g id="edge34" class="edge">
<title>n4418317808&#45;&gt;n4418384032</title>
<path fill="none" stroke="black" d="M2415.68,-123.97C2406.6,-107.38 2392.65,-81.88 2382.01,-62.43"/>
<polygon fill="black" stroke="black" points="2385.09,-60.76 2377.21,-53.67 2378.94,-64.12 2385.09,-60.76"/>
</g>
<!-- n4418318000 -->
<g id="node36" class="node">
<title>n4418318000</title>
<polygon fill="lightgreen" stroke="black" points="2524.25,-52 2443.75,-52 2443.75,-16 2524.25,-16 2524.25,-52"/>
<text xml:space="preserve" text-anchor="middle" x="2484" y="-28.95" font-family="Times,serif" font-size="14.00">{294 | 302}</text>
</g>
<!-- n4418317808&#45;&gt;n4418318000 -->
<g id="edge35" class="edge">
<title>n4418317808&#45;&gt;n4418318000</title>
<path fill="none" stroke="black" d="M2434.48,-123.97C2443.76,-107.3 2458.04,-81.65 2468.88,-62.16"/>
<polygon fill="black" stroke="black" points="2471.81,-64.1 2473.61,-53.66 2465.69,-60.7 2471.81,-64.1"/>
</g>
<!-- n4418384320 -->
<g id="node37" class="node">
<title>n4418384320</title>
<polygon fill="lightgreen" stroke="black" points="2641.25,-52 2560.75,-52 2560.75,-16 2641.25,-16 2641.25,-52"/>
<text xml:space="preserve" text-anchor="middle" x="2601" y="-28.95" font-family="Times,serif" font-size="14.00">{310 | 331}</text>
</g>
<!-- n4418317808&#45;&gt;n4418384320 -->
<g id="edge36" class="edge">
<title>n4418317808&#45;&gt;n4418384320</title>
<path fill="none" stroke="black" d="M2453.67,-123.73C2483.24,-105.92 2529.54,-78.04 2562.34,-58.28"/>
<polygon fill="black" stroke="black" points="2563.99,-61.37 2570.75,-53.22 2560.38,-55.38 2563.99,-61.37"/>
</g>
<!-- n4418317616&#45;&gt;n4418384032 -->
<g id="edge75" class="edge">
<title>n4418317616&#45;&gt;n4418384032</title>
<path fill="none" stroke="green" stroke-width="3" stroke-dasharray="5,2" d="M2290.68,-34C2296.17,-34 2301.67,-34 2307.17,-34"/>
<polygon fill="green" stroke="green" stroke-width="3" points="2306.91,-39.25 2321.91,-34 2306.91,-28.75 2306.91,-39.25"/>
</g>
<!-- n4418384032&#45;&gt;n4418318000 -->
<g id="edge76" class="edge">
<title>n4418384032&#45;&gt;n4418318000</title>
<path fill="none" stroke="green" stroke-width="3" stroke-dasharray="5,2" d="M2407.68,-34C2413.17,-34 2418.67,-34 2424.17,-34"/>
<polygon fill="green" stroke="green" stroke-width="3" points="2423.91,-39.25 2438.91,-34 2423.91,-28.75 2423.91,-39.25"/>
</g>
<!-- n4418318000&#45;&gt;n4418384320 -->
<g id="edge77" class="edge">
<title>n4418318000&#45;&gt;n4418384320</title>
<path fill="none" stroke="green" stroke-width="3" stroke-dasharray="5,2" d="M2524.68,-34C2530.17,-34 2535.67,-34 2541.17,-34"/>
<polygon fill="green" stroke="green" stroke-width="3" points="2540.91,-39.25 2555.91,-34 2540.91,-28.75 2540.91,-39.25"/>
</g>
<!-- n4418317664 -->
<g id="node39" class="node">
<title>n4418317664</title>
<polygon fill="lightgreen" stroke="black" points="2758.25,-52 2677.75,-52 2677.75,-16 2758.25,-16 2758.25,-52"/>
<text xml:space="preserve" text-anchor="middle" x="2718" y="-28.95" font-family="Times,serif" font-size="14.00">{342 | 350}</text>
</g>
<!-- n4418384320&#45;&gt;n4418317664 -->
<g id="edge78" class="edge">
<title>n4418384320&#45;&gt;n4418317664</title>
<path fill="none" stroke="green" stroke-width="3" stroke-dasharray="5,2" d="M2641.68,-34C2647.17,-34 2652.67,-34 2658.17,-34"/>
<polygon fill="green" stroke="green" stroke-width="3" points="2657.91,-39.25 2672.91,-34 2657.91,-28.75 2657.91,-39.25"/>
</g>
<!-- n4418384224&#45;&gt;n4418317664 -->
<g id="edge38" class="edge">
<title>n4418384224&#45;&gt;n4418317664</title>
<path fill="none" stroke="black" d="M2766.68,-123.97C2757.6,-107.38 2743.65,-81.88 2733.01,-62.43"/>
<polygon fill="black" stroke="black" points="2736.09,-60.76 2728.21,-53.67 2729.94,-64.12 2736.09,-60.76"/>
</g>
<!-- n4418384416 -->
<g id="node40" class="node">
<title>n4418384416</title>
<polygon fill="lightgreen" stroke="black" points="2875.25,-52 2794.75,-52 2794.75,-16 2875.25,-16 2875.25,-52"/>
<text xml:space="preserve" text-anchor="middle" x="2835" y="-28.95" font-family="Times,serif" font-size="14.00">{406 | 430}</text>
</g>
<!-- n4418384224&#45;&gt;n4418384416 -->
<g id="edge39" class="edge">
<title>n4418384224&#45;&gt;n4418384416</title>
<path fill="none" stroke="black" d="M2785.48,-123.97C2794.76,-107.3 2809.04,-81.65 2819.88,-62.16"/>
<polygon fill="black" stroke="black" points="2822.81,-64.1 2824.61,-53.66 2816.69,-60.7 2822.81,-64.1"/>
</g>
<!-- n4418384176 -->
<g id="node41" class="node">
<title>n4418384176</title>
<polygon fill="lightgreen" stroke="black" points="2992.25,-52 2911.75,-52 2911.75,-16 2992.25,-16 2992.25,-52"/>
<text xml:space="preserve" text-anchor="middle" x="2952" y="-28.95" font-family="Times,serif" font-size="14.00">{435 | 452}</text>
</g>
<!-- n4418384224&#45;&gt;n4418384176 -->
<g id="edge40" class="edge">
<title>n4418384224&#45;&gt;n4418384176</title>
<path fill="none" stroke="black" d="M2804.67,-123.73C2834.24,-105.92 2880.54,-78.04 2913.34,-58.28"/>
<polygon fill="black" stroke="black" points="2914.99,-61.37 2921.75,-53.22 2911.38,-55.38 2914.99,-61.37"/>
</g>
<!-- n4418317664&#45;&gt;n4418384416 -->
<g id="edge79" class="edge">
<title>n4418317664&#45;&gt;n4418384416</title>
<path fill="none" stroke="green" stroke-width="3" stroke-dasharray="5,2" d="M2758.68,-34C2764.17,-34 2769.67,-34 2775.17,-34"/>
<polygon fill="green" stroke="green" stroke-width="3" points="2774.91,-39.25 2789.91,-34 2774.91,-28.75 2774.91,-39.25"/>
</g>
<!-- n4418384416&#45;&gt;n4418384176 -->
<g id="edge80" class="edge">
<title>n4418384416&#45;&gt;n4418384176</title>
<path fill="none" stroke="green" stroke-width="3" stroke-dasharray="5,2" d="M2875.68,-34C2881.17,-34 2886.67,-34 2892.17,-34"/>
<polygon fill="green" stroke="green" stroke-width="3" points="2891.91,-39.25 2906.91,-34 2891.91,-28.75 2891.91,-39.25"/>
</g>
<!-- n4418318048 -->
<g id="node44" class="node">
<title>n4418318048</title>
<polygon fill="lightgreen" stroke="black" points="3139.62,-52 3028.38,-52 3028.38,-16 3139.62,-16 3139.62,-52"/>
<text xml:space="preserve" text-anchor="middle" x="3084" y="-28.95" font-family="Times,serif" font-size="14.00">{492 | 495 | 516}</text>
</g>
<!-- n4418384176&#45;&gt;n4418318048 -->
<g id="edge81" class="edge">
<title>n4418384176&#45;&gt;n4418318048</title>
<path fill="none" stroke="green" stroke-width="3" stroke-dasharray="5,2" d="M2992.73,-34C2998.07,-34 3003.4,-34 3008.73,-34"/>
<polygon fill="green" stroke="green" stroke-width="3" points="3008.49,-39.25 3023.49,-34 3008.49,-28.75 3008.49,-39.25"/>
</g>
<!-- n4418318096 -->
<g id="node43" class="node">
<title>n4418318096</title>
<polygon fill="lightblue" stroke="black" points="3314.25,-160 3233.75,-160 3233.75,-124 3314.25,-124 3314.25,-160"/>
<text xml:space="preserve" text-anchor="middle" x="3274" y="-136.95" font-family="Times,serif" font-size="14.00">{521 | 598}</text>
</g>
<!-- n4418318144&#45;&gt;n4418318096 -->
<g id="edge42" class="edge">
<title>n4418318144&#45;&gt;n4418318096</title>
<path fill="none" stroke="black" d="M3353.74,-231.97C3338.45,-214.92 3314.74,-188.46 3297.14,-168.82"/>
<polygon fill="black" stroke="black" points="3299.83,-166.58 3290.55,-161.47 3294.62,-171.25 3299.83,-166.58"/>
</g>
<!-- n4418384512 -->
<g id="node47" class="node">
<title>n4418384512</title>
<polygon fill="lightblue" stroke="black" points="3571.25,-160 3490.75,-160 3490.75,-124 3571.25,-124 3571.25,-160"/>
<text xml:space="preserve" text-anchor="middle" x="3531" y="-136.95" font-family="Times,serif" font-size="14.00">{794 | 833}</text>
</g>
<!-- n4418318144&#45;&gt;n4418384512 -->
<g id="edge46" class="edge">
<title>n4418318144&#45;&gt;n4418384512</title>
<path fill="none" stroke="black" d="M3395.39,-231.73C3422.49,-214 3464.86,-186.28 3495.02,-166.54"/>
<polygon fill="black" stroke="black" points="3496.64,-169.67 3503.09,-161.26 3492.8,-163.81 3496.64,-169.67"/>
</g>
<!-- n4418317952 -->
<g id="node51" class="node">
<title>n4418317952</title>
<polygon fill="lightblue" stroke="black" points="3952.25,-160 3871.75,-160 3871.75,-124 3952.25,-124 3952.25,-160"/>
<text xml:space="preserve" text-anchor="middle" x="3912" y="-136.95" font-family="Times,serif" font-size="14.00">{910 | 968}</text>
</g>
<!-- n4418318144&#45;&gt;n4418317952 -->
<g id="edge50" class="edge">
<title>n4418318144&#45;&gt;n4418317952</title>
<path fill="none" stroke="black" d="M3409.37,-241.12C3506.36,-222.19 3752.43,-174.15 3860.15,-153.12"/>
<polygon fill="black" stroke="black" points="3860.73,-156.57 3869.88,-151.22 3859.39,-149.7 3860.73,-156.57"/>
</g>
<!-- n4418318096&#45;&gt;n4418318048 -->
<g id="edge43" class="edge">
<title>n4418318096&#45;&gt;n4418318048</title>
<path fill="none" stroke="black" d="M3243.05,-123.73C3210.99,-105.85 3160.71,-77.8 3125.28,-58.03"/>
<polygon fill="black" stroke="black" points="3127.01,-54.99 3116.57,-53.17 3123.6,-61.1 3127.01,-54.99"/>
</g>
<!-- n4418384128 -->
<g id="node45" class="node">
<title>n4418384128</title>
<polygon fill="lightgreen" stroke="black" points="3256.25,-52 3175.75,-52 3175.75,-16 3256.25,-16 3256.25,-52"/>
<text xml:space="preserve" text-anchor="middle" x="3216" y="-28.95" font-family="Times,serif" font-size="14.00">{521 | 528}</text>
</g>
<!-- n4418318096&#45;&gt;n4418384128 -->
<g id="edge44" class="edge">
<title>n4418318096&#45;&gt;n4418384128</title>
<path fill="none" stroke="black" d="M3264.68,-123.97C3255.6,-107.38 3241.65,-81.88 3231.01,-62.43"/>
<polygon fill="black" stroke="black" points="3234.09,-60.76 3226.21,-53.67 3227.94,-64.12 3234.09,-60.76"/>
</g>
<!-- n4418384464 -->
<g id="node46" class="node">
<title>n4418384464</title>
<polygon fill="lightgreen" stroke="black" points="3373.25,-52 3292.75,-52 3292.75,-16 3373.25,-16 3373.25,-52"/>
<text xml:space="preserve" text-anchor="middle" x="3333" y="-28.95" font-family="Times,serif" font-size="14.00">{598 | 657}</text>
</g>
<!-- n4418318096&#45;&gt;n4418384464 -->
<g id="edge45" class="edge">
<title>n4418318096&#45;&gt;n4418384464</title>
<path fill="none" stroke="black" d="M3283.48,-123.97C3292.76,-107.3 3307.04,-81.65 3317.88,-62.16"/>
<polygon fill="black" stroke="black" points="3320.81,-64.1 3322.61,-53.66 3314.69,-60.7 3320.81,-64.1"/>
</g>
<!-- n4418318048&#45;&gt;n4418384128 -->
<g id="edge82" class="edge">
<title>n4418318048&#45;&gt;n4418384128</title>
<path fill="none" stroke="green" stroke-width="3" stroke-dasharray="5,2" d="M3139.95,-34C3145.29,-34 3150.63,-34 3155.96,-34"/>
<polygon fill="green" stroke="green" stroke-width="3" points="3155.76,-39.25 3170.76,-34 3155.76,-28.75 3155.76,-39.25"/>
</g>
<!-- n4418384128&#45;&gt;n4418384464 -->
<g id="edge83" class="edge">
<title>n4418384128&#45;&gt;n4418384464</title>
<path fill="none" stroke="green" stroke-width="3" stroke-dasharray="5,2" d="M3256.68,-34C3262.17,-34 3267.67,-34 3273.17,-34"/>
<polygon fill="green" stroke="green" stroke-width="3" points="3272.91,-39.25 3287.91,-34 3272.91,-28.75 3272.91,-39.25"/>
</g>
<!-- n4418317856 -->
<g id="node48" class="node">
<title>n4418317856</title>
<polygon fill="lightgreen" stroke="black" points="3520.62,-52 3409.38,-52 3409.38,-16 3520.62,-16 3520.62,-52"/>
<text xml:space="preserve" text-anchor="middle" x="3465" y="-28.95" font-family="Times,serif" font-size="14.00">{679 | 682 | 756}</text>
</g>
<!-- n4418384464&#45;&gt;n4418317856 -->
<g id="edge84" class="edge">
<title>n4418384464&#45;&gt;n4418317856</title>
<path fill="none" stroke="green" stroke-width="3" stroke-dasharray="5,2" d="M3373.73,-34C3379.07,-34 3384.4,-34 3389.73,-34"/>
<polygon fill="green" stroke="green" stroke-width="3" points="3389.49,-39.25 3404.49,-34 3389.49,-28.75 3389.49,-39.25"/>
</g>
<!-- n4418384512&#45;&gt;n4418317856 -->
<g id="edge47" class="edge">
<title>n4418384512&#45;&gt;n4418317856</title>
<path fill="none" stroke="black" d="M3520.4,-123.97C3509.97,-107.22 3493.9,-81.41 3481.74,-61.89"/>
<polygon fill="black" stroke="black" points="3484.85,-60.26 3476.6,-53.63 3478.91,-63.96 3484.85,-60.26"/>
</g>
<!-- n4418384080 -->
<g id="node49" class="node">
<title>n4418384080</title>
<polygon fill="lightgreen" stroke="black" points="3637.25,-52 3556.75,-52 3556.75,-16 3637.25,-16 3637.25,-52"/>
<text xml:space="preserve" text-anchor="middle" x="3597" y="-28.95" font-family="Times,serif" font-size="14.00">{794 | 813}</text>
</g>
<!-- n4418384512&#45;&gt;n4418384080 -->
<g id="edge48" class="edge">
<title>n4418384512&#45;&gt;n4418384080</title>
<path fill="none" stroke="black" d="M3541.6,-123.97C3552.03,-107.22 3568.1,-81.41 3580.26,-61.89"/>
<polygon fill="black" stroke="black" points="3583.09,-63.96 3585.4,-53.63 3577.15,-60.26 3583.09,-63.96"/>
</g>
<!-- n4418384656 -->
<g id="node50" class="node">
<title>n4418384656</title>
<polygon fill="lightgreen" stroke="black" points="3754.25,-52 3673.75,-52 3673.75,-16 3754.25,-16 3754.25,-52"/>
<text xml:space="preserve" text-anchor="middle" x="3714" y="-28.95" font-family="Times,serif" font-size="14.00">{833 | 853}</text>
</g>
<!-- n4418384512&#45;&gt;n4418384656 -->
<g id="edge49" class="edge">
<title>n4418384512&#45;&gt;n4418384656</title>
<path fill="none" stroke="black" d="M3560.81,-123.73C3591.69,-105.85 3640.12,-77.8 3674.24,-58.03"/>
<polygon fill="black" stroke="black" points="3675.69,-61.24 3682.59,-53.19 3672.18,-55.18 3675.69,-61.24"/>
</g>
<!-- n4418317856&#45;&gt;n4418384080 -->
<g id="edge85" class="edge">
<title>n4418317856&#45;&gt;n4418384080</title>
<path fill="none" stroke="green" stroke-width="3" stroke-dasharray="5,2" d="M3520.95,-34C3526.29,-34 3531.63,-34 3536.96,-34"/>
<polygon fill="green" stroke="green" stroke-width="3" points="3536.76,-39.25 3551.76,-34 3536.76,-28.75 3536.76,-39.25"/>
</g>
<!-- n4418384080&#45;&gt;n4418384656 -->
<g id="edge86" class="edge">
<title>n4418384080&#45;&gt;n4418384656</title>
<path fill="none" stroke="green" stroke-width="3" stroke-dasharray="5,2" d="M3637.68,-34C3643.17,-34 3648.67,-34 3654.17,-34"/>
<polygon fill="green" stroke="green" stroke-width="3" points="3653.91,-39.25 3668.91,-34 3653.91,-28.75 3653.91,-39.25"/>
</g>
<!-- n4418317760 -->
<g id="node52" class="node">
<title>n4418317760</title>
<polygon fill="lightgreen" stroke="black" points="3901.62,-52 3790.38,-52 3790.38,-16 3901.62,-16 3901.62,-52"/>
<text xml:space="preserve" text-anchor="middle" x="3846" y="-28.95" font-family="Times,serif" font-size="14.00">{866 | 869 | 876}</text>
</g>
<!-- n4418384656&#45;&gt;n4418317760 -->
<g id="edge87" class="edge">
<title>n4418384656&#45;&gt;n4418317760</title>
<path fill="none" stroke="green" stroke-width="3" stroke-dasharray="5,2" d="M3754.73,-34C3760.07,-34 3765.4,-34 3770.73,-34"/>
<polygon fill="green" stroke="green" stroke-width="3" points="3770.49,-39.25 3785.49,-34 3770.49,-28.75 3770.49,-39.25"/>
</g>
<!-- n4418317952&#45;&gt;n4418317760 -->
<g id="edge51" class="edge">
<title>n4418317952&#45;&gt;n4418317760</title>
<path fill="none" stroke="black" d="M3901.4,-123.97C3890.97,-107.22 3874.9,-81.41 3862.74,-61.89"/>
<polygon fill="black" stroke="black" points="3865.85,-60.26 3857.6,-53.63 3859.91,-63.96 3865.85,-60.26"/>
</g>
<!-- n4418318240 -->
<g id="node53" class="node">
<title>n4418318240</title>
<polygon fill="lightgreen" stroke="black" points="4018.25,-52 3937.75,-52 3937.75,-16 4018.25,-16 4018.25,-52"/>
<text xml:space="preserve" text-anchor="middle" x="3978" y="-28.95" font-family="Times,serif" font-size="14.00">{910 | 911}</text>
</g>
<!-- n4418317952&#45;&gt;n4418318240 -->
<g id="edge52" class="edge">
<title>n4418317952&#45;&gt;n4418318240</title>
<path fill="none" stroke="black" d="M3922.6,-123.97C3933.03,-107.22 3949.1,-81.41 3961.26,-61.89"/>
<polygon fill="black" stroke="black" points="3964.09,-63.96 3966.4,-53.63 3958.15,-60.26 3964.09,-63.96"/>
</g>
<!-- n4418317904 -->
<g id="node54" class="node">
<title>n4418317904</title>
<polygon fill="lightgreen" stroke="black" points="4165.62,-52 4054.38,-52 4054.38,-16 4165.62,-16 4165.62,-52"/>
<text xml:space="preserve" text-anchor="middle" x="4110" y="-28.95" font-family="Times,serif" font-size="14.00">{968 | 972 | 985}</text>
</g>
<!-- n4418317952&#45;&gt;n4418317904 -->
<g id="edge53" class="edge">
<title>n4418317952&#45;&gt;n4418317904</title>
<path fill="none" stroke="black" d="M3944.25,-123.73C3977.81,-105.77 4030.51,-77.55 4067.46,-57.78"/>
<polygon fill="black" stroke="black" points="4068.93,-60.96 4076.1,-53.15 4065.63,-54.78 4068.93,-60.96"/>
</g>
<!-- n4418317760&#45;&gt;n4418318240 -->
<g id="edge88" class="edge">
<title>n4418317760&#45;&gt;n4418318240</title>
<path fill="none" stroke="green" stroke-width="3" stroke-dasharray="5,2" d="M3901.95,-34C3907.29,-34 3912.63,-34 3917.96,-34"/>
<polygon fill="green" stroke="green" stroke-width="3" points="3917.76,-39.25 3932.76,-34 3917.76,-28.75 3917.76,-39.25"/>
</g>
<!-- n4418318240&#45;&gt;n4418317904 -->
<g id="edge89" class="edge">
<title>n4418318240&#45;&gt;n4418317904</title>
<path fill="none" stroke="green" stroke-width="3" stroke-dasharray="5,2" d="M4018.73,-34C4024.07,-34 4029.4,-34 4034.73,-34"/>
<polygon fill="green" stroke="green" stroke-width="3" points="4034.49,-39.25 4049.49,-34 4034.49,-28.75 4034.49,-39.25"/>
</g>
</g>
</svg>
